<svg width="28" height="33" viewBox="0 0 28 33" fill="none" xmlns="http://www.w3.org/2000/svg">
<path d="M13.9993 32.6666C15.8327 32.6666 17.3327 31.1666 17.3327 29.3333H10.666C10.666 31.1666 12.166 32.6666 13.9993 32.6666ZM23.9993 22.6666V14.3333C23.9993 9.21663 21.2827 4.93329 16.4993 3.79996V2.66663C16.4993 1.28329 15.3827 0.166626 13.9993 0.166626C12.616 0.166626 11.4993 1.28329 11.4993 2.66663V3.79996C6.73268 4.93329 3.99935 9.19996 3.99935 14.3333V22.6666L0.666016 26V27.6666H27.3327V26L23.9993 22.6666ZM20.666 24.3333H7.33268V14.3333C7.33268 10.2 9.84935 6.83329 13.9993 6.83329C18.1493 6.83329 20.666 10.2 20.666 14.3333V24.3333Z" fill="black"/>
</svg>
