<svg width="132" height="108" viewBox="0 0 132 108" fill="none" xmlns="http://www.w3.org/2000/svg">
<path d="M36 84C32.7 84 29.876 82.826 27.528 80.478C25.18 78.13 24.004 75.304 24 72V12C24 8.7 25.176 5.876 27.528 3.528C29.88 1.18 32.704 0.004 36 0H120C123.3 0 126.126 1.176 128.478 3.528C130.83 5.88 132.004 8.704 132 12V72C132 75.3 130.826 78.126 128.478 80.478C126.13 82.83 123.304 84.004 120 84H36ZM78 55.8L36 26.55V72H120V26.55L78 55.8ZM78 41.1L120 12H36L78 41.1ZM12 108C8.7 108 5.876 106.826 3.528 104.478C1.18 102.13 0.004 99.304 0 96V21H12V96H111V108H12Z" fill="black"/>
</svg>
