<svg width="50" height="50" viewBox="0 0 50 50" fill="none" xmlns="http://www.w3.org/2000/svg">
<g filter="url(#filter0_d_120_18)">
<path d="M25.0001 0C19.2968 0 18.5816 0.0241951 16.3417 0.126352C14.1065 0.228322 12.58 0.583371 11.2442 1.10241C9.86322 1.63908 8.6921 2.35718 7.52467 3.52461C6.35718 4.69204 5.63908 5.86329 5.10247 7.24422C4.58331 8.57996 4.22838 10.1065 4.12629 12.3417C4.02413 14.5816 4 15.2968 4 21.0001C4 26.7032 4.02413 27.4184 4.12629 29.6583C4.22838 31.8935 4.58331 33.42 5.10247 34.7558C5.63914 36.1367 6.35724 37.3078 7.52467 38.4754C8.69217 39.6428 9.86322 40.3609 11.2442 40.8976C12.58 41.4166 14.1065 41.7716 16.3417 41.8736C18.5816 41.9758 19.2968 42 25.0001 42C30.7032 42 31.4184 41.9758 33.6583 41.8736C35.8935 41.7717 37.42 41.4166 38.7558 40.8976C40.1367 40.3609 41.3078 39.6428 42.4754 38.4754C43.6428 37.3078 44.3609 36.1367 44.8976 34.7558C45.4166 33.42 45.7717 31.8935 45.8736 29.6583C45.9758 27.4184 46 26.7032 46 21.0001C46 15.2968 45.9758 14.5816 45.8736 12.3417C45.7717 10.1065 45.4166 8.57996 44.8976 7.24422C44.3609 5.86329 43.6428 4.69204 42.4754 3.52461C41.3078 2.35718 40.1367 1.63908 38.7558 1.10241C37.42 0.583371 35.8935 0.228322 33.6583 0.126352C31.4184 0.0241951 30.7032 0 25.0001 0ZM25.0001 3.78376C30.6072 3.78376 31.2714 3.8052 33.4858 3.90623C35.5333 3.99957 36.6452 4.34168 37.3852 4.62927C38.3655 5.01027 39.065 5.46529 39.7998 6.20014C40.5347 6.935 40.9897 7.6346 41.3707 8.61478C41.6583 9.35476 42.0004 10.4667 42.0938 12.5142C42.1948 14.7286 42.2162 15.3928 42.2162 21C42.2162 26.6072 42.1948 27.2714 42.0938 29.4858C42.0004 31.5333 41.6583 32.6452 41.3707 33.3852C40.9897 34.3655 40.5347 35.065 39.7998 35.7998C39.065 36.5347 38.3654 36.9897 37.3852 37.3707C36.6452 37.6583 35.5333 38.0004 33.4858 38.0938C31.2718 38.1948 30.6076 38.2162 25 38.2162C19.3924 38.2162 18.7283 38.1948 16.5142 38.0937C14.4667 38.0004 13.3548 37.6583 12.6148 37.3707C11.6345 36.9897 10.935 36.5347 10.2002 35.7998C9.46535 35.065 9.01027 34.3654 8.62927 33.3852C8.34168 32.6452 7.99964 31.5333 7.90623 29.4858C7.8052 27.2714 7.78376 26.6072 7.78376 21C7.78376 15.3928 7.8052 14.7286 7.90623 12.5142C7.99964 10.4667 8.34168 9.35476 8.62927 8.61484C9.01027 7.63453 9.46535 6.935 10.2001 6.20021C10.935 5.46529 11.6346 5.01027 12.6148 4.62927C13.3548 4.34168 14.4667 3.99957 16.5142 3.90623C18.7286 3.8052 19.3928 3.78376 25 3.78376" fill="#001767"/>
<path d="M24.9999 27.9999C21.1338 27.9999 17.9998 24.8659 17.9998 21C17.9998 17.1339 21.1338 13.9999 24.9999 13.9999C28.8659 13.9999 31.9999 17.1339 31.9999 21C31.9999 24.8659 28.8659 27.9999 24.9999 27.9999ZM24.9999 10.2161C19.0441 10.2161 14.2161 15.0442 14.2161 21C14.2161 26.9557 19.0441 31.7837 24.9999 31.7837C30.9556 31.7837 35.7836 26.9557 35.7836 21C35.7836 15.0442 30.9556 10.2161 24.9999 10.2161V10.2161ZM38.7297 9.79006C38.7297 11.1819 37.6014 12.31 36.2097 12.31C34.818 12.31 33.6897 11.1819 33.6897 9.79006C33.6897 8.39831 34.818 7.27002 36.2097 7.27002C37.6014 7.27002 38.7297 8.39831 38.7297 9.79006" fill="#001767"/>
</g>
<defs>
<filter id="filter0_d_120_18" x="0" y="0" width="50" height="50" filterUnits="userSpaceOnUse" color-interpolation-filters="sRGB">
<feFlood flood-opacity="0" result="BackgroundImageFix"/>
<feColorMatrix in="SourceAlpha" type="matrix" values="0 0 0 0 0 0 0 0 0 0 0 0 0 0 0 0 0 0 127 0" result="hardAlpha"/>
<feOffset dy="4"/>
<feGaussianBlur stdDeviation="2"/>
<feComposite in2="hardAlpha" operator="out"/>
<feColorMatrix type="matrix" values="0 0 0 0 0 0 0 0 0 0 0 0 0 0 0 0 0 0 0.25 0"/>
<feBlend mode="normal" in2="BackgroundImageFix" result="effect1_dropShadow_120_18"/>
<feBlend mode="normal" in="SourceGraphic" in2="effect1_dropShadow_120_18" result="shape"/>
</filter>
</defs>
</svg>
