<svg width="28" height="36" viewBox="0 0 28 36" fill="none" xmlns="http://www.w3.org/2000/svg">
<path d="M23.9993 12.3333H22.3327V8.99996C22.3327 4.39996 18.5993 0.666626 13.9993 0.666626C9.39935 0.666626 5.66602 4.39996 5.66602 8.99996V12.3333H3.99935C2.16602 12.3333 0.666016 13.8333 0.666016 15.6666V32.3333C0.666016 34.1666 2.16602 35.6666 3.99935 35.6666H23.9993C25.8327 35.6666 27.3327 34.1666 27.3327 32.3333V15.6666C27.3327 13.8333 25.8327 12.3333 23.9993 12.3333ZM8.99935 8.99996C8.99935 6.23329 11.2327 3.99996 13.9993 3.99996C16.766 3.99996 18.9993 6.23329 18.9993 8.99996V12.3333H8.99935V8.99996ZM23.9993 32.3333H3.99935V15.6666H23.9993V32.3333ZM13.9993 27.3333C15.8327 27.3333 17.3327 25.8333 17.3327 24C17.3327 22.1666 15.8327 20.6666 13.9993 20.6666C12.166 20.6666 10.666 22.1666 10.666 24C10.666 25.8333 12.166 27.3333 13.9993 27.3333Z" fill="black"/>
</svg>
