<svg width="51" height="51" viewBox="0 0 51 51" fill="none" xmlns="http://www.w3.org/2000/svg">
<path d="M25.7275 6.43189C29.165 6.43189 31.9775 9.24439 31.9775 12.6819C31.9775 16.1194 29.165 18.9319 25.7275 18.9319C22.29 18.9319 19.4775 16.1194 19.4775 12.6819C19.4775 9.24439 22.29 6.43189 25.7275 6.43189ZM25.7275 37.6819C34.165 37.6819 43.8525 41.7131 44.4775 43.9319H6.97754C7.69629 41.6819 17.3213 37.6819 25.7275 37.6819ZM25.7275 0.181885C18.8213 0.181885 13.2275 5.77564 13.2275 12.6819C13.2275 19.5881 18.8213 25.1819 25.7275 25.1819C32.6338 25.1819 38.2275 19.5881 38.2275 12.6819C38.2275 5.77564 32.6338 0.181885 25.7275 0.181885ZM25.7275 31.4319C17.3838 31.4319 0.727539 35.6194 0.727539 43.9319V50.1819H50.7275V43.9319C50.7275 35.6194 34.0713 31.4319 25.7275 31.4319Z" fill="black"/>
</svg>
