<svg width="40" height="44" viewBox="0 0 40 44" fill="none" xmlns="http://www.w3.org/2000/svg">
<path d="M39.3132 10.6252V18.1843C37.9451 18.0559 36.1725 17.7574 34.2053 17.0588C31.639 16.1482 29.7304 14.9063 28.4797 13.945V29.2244L28.4488 29.1766C28.4704 29.4781 28.4797 29.7857 28.4797 30.0991C28.4797 37.6881 22.0932 43.8649 14.2398 43.8649C6.38643 43.8649 0 37.6881 0 30.0991C0 22.5102 6.38643 16.3303 14.2398 16.3303C15.0088 16.3303 15.7623 16.39 16.5004 16.5035V23.9551C15.7901 23.7103 15.0335 23.5789 14.2398 23.5789C10.5216 23.5789 7.49515 26.5017 7.49515 30.0991C7.49515 33.6966 10.5216 36.6193 14.2398 36.6193C17.958 36.6193 20.9845 33.6936 20.9845 30.0991C20.9845 29.9648 20.9845 29.8304 20.9722 29.6961V0H28.7885C28.8163 0.638882 28.8441 1.28374 28.8719 1.92561C28.9244 3.18546 29.3877 4.39455 30.1968 5.38571C31.1479 6.55003 32.5469 7.90245 34.5141 8.98317C36.3547 9.99225 38.0871 10.4251 39.3132 10.6281V10.6252Z" fill="#001767"/>
</svg>
