<svg width="57" height="50" viewBox="0 0 57 50" fill="none" xmlns="http://www.w3.org/2000/svg">
<g filter="url(#filter0_d_120_34)">
<path d="M52.9974 4.29759C51.8474 5.57694 50.2539 6.36553 48.4875 6.36553C48.2632 6.36553 48.0389 6.35134 47.8197 6.32581C49.6608 5.10887 51.0842 3.20547 51.7933 0.933281C51.7933 0.933281 51.7958 0.933279 51.7958 0.930442C51.8938 0.626916 51.9763 0.317709 52.0434 0C50.5865 1.7162 48.5907 2.8764 46.3552 3.15156C46.0122 3.19694 45.6615 3.21681 45.3108 3.21681C45.2 3.21681 45.0916 3.21396 44.9833 3.20545C44.2278 2.33175 43.3253 1.6084 42.3249 1.07794C41.2109 0.479397 39.9655 0.127662 38.6504 0.082275C38.5421 0.0766017 38.4338 0.0709172 38.323 0.0709172C37.209 0.0709172 36.1389 0.286503 35.1513 0.689313C34.8961 0.791434 34.6537 0.902071 34.4113 1.03256C31.281 2.64663 29.115 6.14711 29.115 10.2036C29.115 11.0347 29.2078 11.846 29.378 12.6176C28.4188 12.575 27.4699 12.4729 26.539 12.3197C26.2399 12.2687 25.9408 12.2119 25.6469 12.1495C23.272 11.6645 21.0054 10.8276 18.9013 9.69296C17.019 8.68026 15.2605 7.42928 13.6644 5.97406C12.321 4.75429 11.091 3.39551 9.99253 1.91192C9.94612 1.84952 9.89712 1.78144 9.85328 1.71903C9.78882 1.82683 9.72953 1.93463 9.67538 2.0481C8.90697 3.52601 8.47115 5.23369 8.47115 7.05768C8.47115 7.11441 8.47116 7.174 8.47373 7.22789C8.49178 8.59518 8.75735 9.89438 9.22665 11.0744C9.42778 11.5992 9.67017 12.0956 9.95123 12.5665C10.7738 13.9593 11.898 15.1196 13.226 15.9252C13.2853 15.9677 13.3472 16.0018 13.4091 16.033C13.3137 16.0528 13.2157 16.0727 13.1177 16.0812C12.8444 16.1209 12.5659 16.1408 12.2822 16.1408C10.8692 16.1408 9.55415 15.6557 8.47632 14.8274C8.47116 14.9153 8.47115 15.0032 8.47115 15.094C8.47115 17.9874 9.57222 20.5972 11.3385 22.4382C12.7129 23.8821 14.4921 24.8522 16.4672 25.1359C15.7555 25.4224 14.9872 25.5756 14.1878 25.5756C13.3214 25.5756 12.4911 25.394 11.733 25.0621C12.8625 29.1073 16.2377 32.0744 20.2577 32.2078C17.8029 35.0132 14.3528 36.7578 10.5366 36.7578C8.16431 36.7578 5.93391 36.0827 4 34.9026C8.64653 39.325 14.7061 42 21.3355 42C35.9842 42 47.8558 28.9399 47.8558 12.8247C47.8558 11.9368 47.8197 11.0602 47.7475 10.1951C50.1714 9.14265 52.0924 6.99244 53 4.29475L52.9974 4.29759Z" fill="#001767"/>
</g>
<defs>
<filter id="filter0_d_120_34" x="0" y="0" width="57" height="50" filterUnits="userSpaceOnUse" color-interpolation-filters="sRGB">
<feFlood flood-opacity="0" result="BackgroundImageFix"/>
<feColorMatrix in="SourceAlpha" type="matrix" values="0 0 0 0 0 0 0 0 0 0 0 0 0 0 0 0 0 0 127 0" result="hardAlpha"/>
<feOffset dy="4"/>
<feGaussianBlur stdDeviation="2"/>
<feComposite in2="hardAlpha" operator="out"/>
<feColorMatrix type="matrix" values="0 0 0 0 0 0 0 0 0 0 0 0 0 0 0 0 0 0 0.25 0"/>
<feBlend mode="normal" in2="BackgroundImageFix" result="effect1_dropShadow_120_34"/>
<feBlend mode="normal" in="SourceGraphic" in2="effect1_dropShadow_120_34" result="shape"/>
</filter>
</defs>
</svg>
